<mxfile host="app.diagrams.net" modified="2024-07-06T17:37:39.176Z" agent="Mozilla/5.0 (Windows NT 10.0; Win64; x64) AppleWebKit/537.36 (KHTML, like Gecko) Chrome/126.0.0.0 Safari/537.36" etag="cabUstSVZc4AGtf5fDbs" version="24.6.4" type="device">
  <diagram name="Page-1" id="ArZNX4E8F-K2qv_rUC4H">
    <mxGraphModel dx="1400" dy="743" grid="1" gridSize="10" guides="1" tooltips="1" connect="1" arrows="1" fold="1" page="1" pageScale="1" pageWidth="850" pageHeight="1100" math="0" shadow="0">
      <root>
        <mxCell id="0" />
        <mxCell id="1" parent="0" />
        <mxCell id="B0okSR7jfTPg6zhpA7x3-1" value="" style="rounded=0;whiteSpace=wrap;html=1;" vertex="1" parent="1">
          <mxGeometry x="180" y="200" width="490" height="590" as="geometry" />
        </mxCell>
        <mxCell id="B0okSR7jfTPg6zhpA7x3-2" value="Pembeli" style="shape=umlActor;verticalLabelPosition=bottom;verticalAlign=top;html=1;outlineConnect=0;" vertex="1" parent="1">
          <mxGeometry x="40" y="465" width="70" height="120" as="geometry" />
        </mxCell>
        <mxCell id="B0okSR7jfTPg6zhpA7x3-6" value="Login" style="ellipse;whiteSpace=wrap;html=1;" vertex="1" parent="1">
          <mxGeometry x="360" y="290" width="130" height="50" as="geometry" />
        </mxCell>
        <mxCell id="B0okSR7jfTPg6zhpA7x3-7" value="Pilih Tenant" style="ellipse;whiteSpace=wrap;html=1;" vertex="1" parent="1">
          <mxGeometry x="260" y="390" width="120" height="60" as="geometry" />
        </mxCell>
        <mxCell id="B0okSR7jfTPg6zhpA7x3-8" value="Pilih Produk" style="ellipse;whiteSpace=wrap;html=1;" vertex="1" parent="1">
          <mxGeometry x="260" y="470" width="120" height="60" as="geometry" />
        </mxCell>
        <mxCell id="B0okSR7jfTPg6zhpA7x3-9" value="Melakukan Pesanan" style="ellipse;whiteSpace=wrap;html=1;" vertex="1" parent="1">
          <mxGeometry x="260" y="550" width="120" height="60" as="geometry" />
        </mxCell>
        <mxCell id="B0okSR7jfTPg6zhpA7x3-10" value="Melakukan pembayaran" style="ellipse;whiteSpace=wrap;html=1;" vertex="1" parent="1">
          <mxGeometry x="260" y="630" width="120" height="60" as="geometry" />
        </mxCell>
        <mxCell id="B0okSR7jfTPg6zhpA7x3-11" value="Melihat status pemesanan" style="ellipse;whiteSpace=wrap;html=1;" vertex="1" parent="1">
          <mxGeometry x="260" y="710" width="120" height="60" as="geometry" />
        </mxCell>
        <mxCell id="B0okSR7jfTPg6zhpA7x3-12" value="" style="edgeStyle=none;orthogonalLoop=1;jettySize=auto;html=1;rounded=0;" edge="1" parent="1" source="B0okSR7jfTPg6zhpA7x3-2" target="B0okSR7jfTPg6zhpA7x3-7">
          <mxGeometry width="100" relative="1" as="geometry">
            <mxPoint x="70" y="524.44" as="sourcePoint" />
            <mxPoint x="170" y="524.44" as="targetPoint" />
            <Array as="points" />
          </mxGeometry>
        </mxCell>
        <mxCell id="B0okSR7jfTPg6zhpA7x3-16" value="" style="endArrow=classic;html=1;rounded=0;entryX=-0.015;entryY=0.657;entryDx=0;entryDy=0;entryPerimeter=0;" edge="1" parent="1" source="B0okSR7jfTPg6zhpA7x3-2" target="B0okSR7jfTPg6zhpA7x3-8">
          <mxGeometry width="50" height="50" relative="1" as="geometry">
            <mxPoint x="110" y="510" as="sourcePoint" />
            <mxPoint x="340" y="490" as="targetPoint" />
          </mxGeometry>
        </mxCell>
        <mxCell id="B0okSR7jfTPg6zhpA7x3-17" value="" style="endArrow=classic;html=1;rounded=0;entryX=0;entryY=0.5;entryDx=0;entryDy=0;" edge="1" parent="1" source="B0okSR7jfTPg6zhpA7x3-2" target="B0okSR7jfTPg6zhpA7x3-9">
          <mxGeometry width="50" height="50" relative="1" as="geometry">
            <mxPoint x="110" y="519" as="sourcePoint" />
            <mxPoint x="233" y="519" as="targetPoint" />
          </mxGeometry>
        </mxCell>
        <mxCell id="B0okSR7jfTPg6zhpA7x3-18" value="" style="endArrow=classic;html=1;rounded=0;" edge="1" parent="1" source="B0okSR7jfTPg6zhpA7x3-2" target="B0okSR7jfTPg6zhpA7x3-10">
          <mxGeometry width="50" height="50" relative="1" as="geometry">
            <mxPoint x="100" y="543" as="sourcePoint" />
            <mxPoint x="215" y="585" as="targetPoint" />
          </mxGeometry>
        </mxCell>
        <mxCell id="B0okSR7jfTPg6zhpA7x3-19" value="" style="endArrow=classic;html=1;rounded=0;" edge="1" parent="1" source="B0okSR7jfTPg6zhpA7x3-2" target="B0okSR7jfTPg6zhpA7x3-11">
          <mxGeometry width="50" height="50" relative="1" as="geometry">
            <mxPoint x="110" y="580" as="sourcePoint" />
            <mxPoint x="225" y="622" as="targetPoint" />
          </mxGeometry>
        </mxCell>
        <mxCell id="B0okSR7jfTPg6zhpA7x3-20" value="" style="edgeStyle=none;orthogonalLoop=1;jettySize=auto;html=1;rounded=0;" edge="1" parent="1" source="B0okSR7jfTPg6zhpA7x3-2" target="B0okSR7jfTPg6zhpA7x3-6">
          <mxGeometry width="100" relative="1" as="geometry">
            <mxPoint x="110" y="476" as="sourcePoint" />
            <mxPoint x="242" y="410" as="targetPoint" />
            <Array as="points" />
          </mxGeometry>
        </mxCell>
        <mxCell id="B0okSR7jfTPg6zhpA7x3-21" value="Melakukan Pengaturan Akun" style="ellipse;whiteSpace=wrap;html=1;" vertex="1" parent="1">
          <mxGeometry x="465" y="380" width="120" height="60" as="geometry" />
        </mxCell>
        <mxCell id="B0okSR7jfTPg6zhpA7x3-22" value="Update Produk" style="ellipse;whiteSpace=wrap;html=1;" vertex="1" parent="1">
          <mxGeometry x="465" y="470" width="120" height="60" as="geometry" />
        </mxCell>
        <mxCell id="B0okSR7jfTPg6zhpA7x3-23" value="Menerima dan melihat pesanan" style="ellipse;whiteSpace=wrap;html=1;" vertex="1" parent="1">
          <mxGeometry x="465" y="550" width="120" height="60" as="geometry" />
        </mxCell>
        <mxCell id="B0okSR7jfTPg6zhpA7x3-24" value="Konfirmasi penyelesaian pesanan" style="ellipse;whiteSpace=wrap;html=1;" vertex="1" parent="1">
          <mxGeometry x="465" y="630" width="120" height="60" as="geometry" />
        </mxCell>
        <mxCell id="B0okSR7jfTPg6zhpA7x3-25" value="Membatalkan atau menolak pesanan" style="ellipse;whiteSpace=wrap;html=1;" vertex="1" parent="1">
          <mxGeometry x="465" y="710" width="120" height="60" as="geometry" />
        </mxCell>
        <mxCell id="B0okSR7jfTPg6zhpA7x3-26" value="Penjual" style="shape=umlActor;verticalLabelPosition=bottom;verticalAlign=top;html=1;outlineConnect=0;" vertex="1" parent="1">
          <mxGeometry x="740" y="465" width="70" height="120" as="geometry" />
        </mxCell>
        <mxCell id="B0okSR7jfTPg6zhpA7x3-28" value="" style="edgeStyle=none;orthogonalLoop=1;jettySize=auto;html=1;rounded=0;" edge="1" parent="1" source="B0okSR7jfTPg6zhpA7x3-26" target="B0okSR7jfTPg6zhpA7x3-6">
          <mxGeometry width="100" relative="1" as="geometry">
            <mxPoint x="820" y="530" as="sourcePoint" />
            <mxPoint x="371" y="346" as="targetPoint" />
            <Array as="points" />
          </mxGeometry>
        </mxCell>
        <mxCell id="B0okSR7jfTPg6zhpA7x3-29" value="" style="edgeStyle=none;orthogonalLoop=1;jettySize=auto;html=1;rounded=0;" edge="1" parent="1" source="B0okSR7jfTPg6zhpA7x3-26" target="B0okSR7jfTPg6zhpA7x3-21">
          <mxGeometry width="100" relative="1" as="geometry">
            <mxPoint x="750" y="515" as="sourcePoint" />
            <mxPoint x="454" y="345" as="targetPoint" />
            <Array as="points" />
          </mxGeometry>
        </mxCell>
        <mxCell id="B0okSR7jfTPg6zhpA7x3-30" value="" style="edgeStyle=none;orthogonalLoop=1;jettySize=auto;html=1;rounded=0;" edge="1" parent="1" source="B0okSR7jfTPg6zhpA7x3-26" target="B0okSR7jfTPg6zhpA7x3-22">
          <mxGeometry width="100" relative="1" as="geometry">
            <mxPoint x="750" y="519" as="sourcePoint" />
            <mxPoint x="579" y="440" as="targetPoint" />
            <Array as="points" />
          </mxGeometry>
        </mxCell>
        <mxCell id="B0okSR7jfTPg6zhpA7x3-31" value="" style="edgeStyle=none;orthogonalLoop=1;jettySize=auto;html=1;rounded=0;entryX=1;entryY=0.5;entryDx=0;entryDy=0;" edge="1" parent="1" source="B0okSR7jfTPg6zhpA7x3-26" target="B0okSR7jfTPg6zhpA7x3-23">
          <mxGeometry width="100" relative="1" as="geometry">
            <mxPoint x="750" y="531" as="sourcePoint" />
            <mxPoint x="594" y="516" as="targetPoint" />
            <Array as="points" />
          </mxGeometry>
        </mxCell>
        <mxCell id="B0okSR7jfTPg6zhpA7x3-32" value="" style="edgeStyle=none;orthogonalLoop=1;jettySize=auto;html=1;rounded=0;entryX=1;entryY=0.5;entryDx=0;entryDy=0;" edge="1" parent="1" source="B0okSR7jfTPg6zhpA7x3-26" target="B0okSR7jfTPg6zhpA7x3-24">
          <mxGeometry width="100" relative="1" as="geometry">
            <mxPoint x="750" y="545" as="sourcePoint" />
            <mxPoint x="595" y="590" as="targetPoint" />
            <Array as="points" />
          </mxGeometry>
        </mxCell>
        <mxCell id="B0okSR7jfTPg6zhpA7x3-33" value="" style="edgeStyle=none;orthogonalLoop=1;jettySize=auto;html=1;rounded=0;" edge="1" parent="1" source="B0okSR7jfTPg6zhpA7x3-26" target="B0okSR7jfTPg6zhpA7x3-25">
          <mxGeometry width="100" relative="1" as="geometry">
            <mxPoint x="750" y="560" as="sourcePoint" />
            <mxPoint x="595" y="670" as="targetPoint" />
            <Array as="points" />
          </mxGeometry>
        </mxCell>
        <mxCell id="B0okSR7jfTPg6zhpA7x3-34" value="BinusF&amp;amp;B&lt;div&gt;Use Case Diagram&lt;/div&gt;" style="text;html=1;align=center;verticalAlign=middle;resizable=0;points=[];autosize=1;strokeColor=none;fillColor=none;fontSize=17;fontStyle=1" vertex="1" parent="1">
          <mxGeometry x="340" y="220" width="170" height="50" as="geometry" />
        </mxCell>
      </root>
    </mxGraphModel>
  </diagram>
</mxfile>
